<svg width="38" height="32" viewBox="0 0 38 32" fill="none" xmlns="http://www.w3.org/2000/svg">
<path d="M5.53723 10.8059C2.48154 10.8059 0 8.39513 0 5.42659C0 2.45806 2.48154 0.0473022 5.53723 0.0473022C8.59293 0.0473022 11.0745 2.45806 11.0745 5.42659C11.0745 8.39513 8.59293 10.8059 5.53723 10.8059Z" fill="#7660FE"/>
<path d="M12.4077 10.7869V5.37929C12.4077 2.41076 14.8893 0 17.9547 0H37.6415V10.7869H12.4077Z" fill="url(#paint0_linear_1385_19056)"/>
<path d="M35.8997 31.2264H24.7571V20.4016" fill="#7660FE"/>
<path fill-rule="evenodd" clip-rule="evenodd" d="M12.417 20.43C12.417 26.367 17.3704 31.1886 23.4915 31.1886L23.5144 10.4632C23.6807 8.71104 25.0513 0 35.861 0H23.526H17.9543C14.8888 0 12.4073 2.41076 12.417 5.37929V20.43Z" fill="url(#paint1_linear_1385_19056)"/>
<defs>
<linearGradient id="paint0_linear_1385_19056" x1="19.9707" y1="5.39206" x2="37.031" y2="5.39206" gradientUnits="userSpaceOnUse">
<stop offset="0.207" stop-color="#730B16"/>
<stop offset="0.3068" stop-color="#921C1B"/>
<stop offset="0.4356" stop-color="#B42E21"/>
<stop offset="0.5679" stop-color="#CE3C25"/>
<stop offset="0.7034" stop-color="#E04629"/>
<stop offset="0.8441" stop-color="#EB4C2A"/>
<stop offset="0.998" stop-color="#EF4E2B"/>
</linearGradient>
<linearGradient id="paint1_linear_1385_19056" x1="17.9499" y1="-0.377118" x2="17.9499" y2="29.9458" gradientUnits="userSpaceOnUse">
<stop offset="0.00372439" stop-color="#F79945"/>
<stop offset="0.9943" stop-color="#EF4E2B"/>
</linearGradient>
</defs>
</svg>
