<svg width="18" height="18" viewBox="0 0 18 18" fill="none" xmlns="http://www.w3.org/2000/svg">
<g clip-path="url(#clip0_1191_47299)">
<path d="M2.71793 14.5693C2.71413 14.5636 2.70844 14.5579 2.70465 14.5522C1.4619 13.0742 0.714355 11.1693 0.714355 9.08789C0.714355 7.00653 1.4619 5.10162 2.70275 3.62361C2.70654 3.61791 2.71223 3.61412 2.71603 3.60843C2.7369 3.58376 2.75587 3.56099 2.77674 3.53823C2.78433 3.52874 2.79192 3.52115 2.79951 3.51166L2.8773 3.42249L2.8792 3.42059C2.90766 3.38834 2.93802 3.35608 2.96648 3.32383L2.96837 3.32193C3.02909 3.25742 3.0898 3.19291 3.15241 3.1303L3.15431 3.1284L3.24538 3.03733L3.25107 3.03164C3.27953 3.00318 3.30799 2.97662 3.33645 2.95006C3.34594 2.94057 3.35543 2.93108 3.36681 2.9216C3.38578 2.90262 3.40476 2.88555 3.42373 2.86847C3.42942 2.86278 3.43701 2.85709 3.4427 2.8495C4.95677 1.44548 6.985 0.587891 9.21436 0.587891C11.4437 0.587891 13.4719 1.44548 14.9879 2.8495C14.9936 2.85519 15.0012 2.86088 15.0069 2.86847C15.0259 2.88555 15.0448 2.90452 15.0638 2.92349C15.0733 2.93298 15.0828 2.94247 15.0942 2.95195C15.1226 2.97852 15.1511 3.00698 15.1795 3.03354L15.1852 3.03923L15.2763 3.1303L15.2782 3.1322C15.3408 3.19481 15.4015 3.25932 15.4622 3.32383L15.4641 3.32573C15.4945 3.35798 15.5229 3.39023 15.5514 3.42249L15.5533 3.42439C15.5799 3.45285 15.6064 3.4832 15.6311 3.51356C15.6387 3.52305 15.6463 3.53064 15.6539 3.54012C15.6747 3.56289 15.6937 3.58756 15.7146 3.61032C15.7184 3.61602 15.7241 3.61981 15.7279 3.6255C16.9668 5.10162 17.7144 7.00653 17.7144 9.08789C17.7144 11.1693 16.9668 13.0742 15.726 14.5522C15.7222 14.5579 15.7165 14.5636 15.7127 14.5693L15.6539 14.6395C15.6463 14.6489 15.6387 14.6565 15.6311 14.666L15.5533 14.7552C15.5533 14.7571 15.5514 14.7571 15.5514 14.759C15.5229 14.7912 15.4945 14.8235 15.4641 14.8539L15.4622 14.8557C15.4015 14.9203 15.3408 14.9848 15.2801 15.0474L15.2782 15.0493C15.2478 15.0796 15.2194 15.11 15.189 15.1384L15.1833 15.1441C15.1207 15.2068 15.0562 15.2675 14.9917 15.3263C13.4719 16.7303 11.4437 17.5879 9.21436 17.5879C6.985 17.5879 4.95677 16.7303 3.44081 15.3263C3.37617 15.267 3.31291 15.2063 3.25107 15.1441L3.24538 15.1384C3.21502 15.1081 3.18467 15.0796 3.15621 15.0493L3.15431 15.0474C3.0917 14.9848 3.03098 14.9203 2.97217 14.8557L2.97027 14.8539C2.94181 14.8216 2.91145 14.7912 2.88299 14.759C2.88299 14.7571 2.8811 14.7571 2.8811 14.7552C2.85453 14.7267 2.82797 14.6964 2.80331 14.666C2.79572 14.6565 2.78813 14.6489 2.78054 14.6395C2.75909 14.6166 2.73821 14.5932 2.71793 14.5693ZM2.64014 11.8637C2.90197 12.4822 3.24728 13.0552 3.66848 13.5751C4.14286 13.1651 4.66151 12.8094 5.2148 12.5145C4.99471 11.6246 4.85811 10.6475 4.82206 9.61914H2.0994C2.15632 10.3951 2.33846 11.1484 2.64014 11.8637ZM2.0994 8.55664H4.82206C4.85811 7.52829 4.99471 6.55117 5.2148 5.66133C4.65889 5.36535 4.14092 5.00865 3.66848 4.60073C2.75289 5.72769 2.20521 7.10849 2.0994 8.55664ZM6.43857 2.51367C5.68534 2.83242 5.0004 3.2726 4.39706 3.82662C4.74755 4.12505 5.12482 4.39054 5.52407 4.6197C5.82194 3.7659 6.20331 3.02405 6.64728 2.43019C6.57708 2.45675 6.50688 2.48521 6.43857 2.51367ZM8.15755 15.8063C8.3321 15.9429 8.50665 16.0473 8.68311 16.1175V12.5979C7.93027 12.6505 7.18993 12.8181 6.4879 13.095C6.64538 13.5618 6.82753 13.9925 7.03813 14.3814C7.36826 14.9962 7.75531 15.4876 8.15755 15.8063ZM7.03813 3.79436C6.82942 4.18521 6.64538 4.6159 6.4879 5.08075C7.18993 5.35767 7.93027 5.52532 8.68311 5.57785V2.06021C8.50855 2.13041 8.3321 2.23287 8.15755 2.37137C7.75531 2.68823 7.36826 3.17963 7.03813 3.79436ZM8.68311 11.5335V9.61914H5.88456C5.91491 10.4578 6.01927 11.2717 6.19382 12.0439L6.19951 12.0667C6.99575 11.7647 7.83309 11.585 8.68311 11.5335ZM8.68311 8.55664V6.64224C7.81413 6.58912 6.97931 6.40508 6.19951 6.1091L6.19382 6.13186C6.01927 6.90407 5.91491 7.71613 5.88456 8.55664H8.68311ZM9.74561 9.61914V11.5335C10.6146 11.5867 11.4494 11.7707 12.2292 12.0667L12.2349 12.0439C12.4094 11.2717 12.5138 10.4597 12.5442 9.61914H9.74561ZM12.5442 8.55664C12.5138 7.71802 12.4094 6.90407 12.2349 6.13186L12.2292 6.1091C11.4494 6.40508 10.6165 6.58912 9.74561 6.64224V8.55664H12.5442ZM9.74561 12.5979V16.1156C9.92016 16.0454 10.0966 15.9429 10.2712 15.8044C10.6734 15.4876 11.0623 14.9943 11.3925 14.3795C11.6012 13.9887 11.7852 13.558 11.9427 13.0931C11.2369 12.8161 10.5026 12.6511 9.74561 12.5979ZM9.74561 5.57785C10.4984 5.52532 11.2388 5.35767 11.9408 5.08075C11.7833 4.61401 11.6012 4.18331 11.3906 3.79436C11.0604 3.17963 10.6734 2.68633 10.2693 2.36948C10.0947 2.23287 9.92016 2.12852 9.74371 2.05831V5.57785H9.74561ZM11.9901 2.51367C11.9199 2.48521 11.8516 2.45675 11.7814 2.43019C12.2254 3.02405 12.6068 3.7659 12.9046 4.6197C13.3031 4.39202 13.6806 4.12639 14.0317 3.82662C13.4283 3.2726 12.7434 2.83242 11.9901 2.51367ZM15.7886 6.31211C15.5267 5.69358 15.1814 5.12059 14.7602 4.60073C14.2878 5.00865 13.7698 5.36535 13.2139 5.66133C13.434 6.55117 13.5706 7.52829 13.6067 8.55664H16.3293C16.2724 7.78064 16.0902 7.0274 15.7886 6.31211ZM16.3293 9.61914H13.6067C13.5706 10.6475 13.434 11.6246 13.2139 12.5145C13.7672 12.8094 14.2859 13.1651 14.7602 13.5751C15.6758 12.4481 16.2235 11.0673 16.3293 9.61914ZM11.9901 15.6621C12.7434 15.3434 13.4283 14.9032 14.0317 14.3492C13.6806 14.0494 13.3031 13.7857 12.9046 13.5561C12.6068 14.4099 12.2254 15.1517 11.7814 15.7456C11.8516 15.719 11.9218 15.6906 11.9901 15.6621ZM6.43857 15.6621C6.50877 15.6906 6.57708 15.719 6.64728 15.7456C6.20331 15.1517 5.82194 14.4099 5.52407 13.5561C5.12563 13.7838 4.74806 14.0494 4.39706 14.3492C4.99706 14.9009 5.68768 15.345 6.43857 15.6621Z" fill="#1890FF"/>
</g>
<defs>
<clipPath id="clip0_1191_47299">
<rect width="17" height="17" fill="white" transform="matrix(-1 0 0 1 17.7144 0.587891)"/>
</clipPath>
</defs>
</svg>
