<svg width="199" height="55" viewBox="0 0 199 55" fill="none" xmlns="http://www.w3.org/2000/svg">
<path d="M77.2842 12.0331C77.2842 9.92541 78.9795 8.28735 81.133 8.28735C83.1835 8.28735 84.8788 9.92541 84.8788 12.0331C84.8788 14.1408 83.1835 15.8247 81.133 15.8247C78.9681 15.8247 77.2842 14.1408 77.2842 12.0331ZM77.9944 20.9107H84.2488V46.2491H77.9944V20.9107Z" fill="#7660FE"/>
<path d="M90.6758 29.7769H107.194V35.3211H90.6758V29.7769Z" fill="#7660FE"/>
<path d="M117.434 46.2489V19.8049H108.601V13.0066H117.434H123.688H138.988L132.082 19.8049H123.688V46.2604H117.434V46.2489Z" fill="#FF6337"/>
<path d="M130.767 33.5795C130.767 25.6297 135.944 20.1428 143.39 20.1428C150.985 20.1428 155.807 25.2174 155.807 33.1213V35.0228L136.723 35.0686C137.181 39.5361 139.541 41.7927 143.699 41.7927C147.136 41.7927 149.392 40.4639 150.114 38.0469H155.91C154.833 43.5911 150.217 46.9245 143.596 46.9245C136.059 46.9131 130.767 41.4261 130.767 33.5795ZM136.872 31.0594H149.599C149.599 27.5656 147.193 25.2632 143.447 25.2632C139.747 25.2632 137.491 27.2678 136.872 31.0594Z" fill="#FF6337"/>
<path d="M164.835 38.5509C164.881 40.7618 166.531 42.1363 169.406 42.1363C172.327 42.1363 173.919 40.9565 173.919 39.1122C173.919 37.8293 173.255 36.9014 170.998 36.3974L166.428 35.3206C161.857 34.2897 159.658 32.1362 159.658 28.0926C159.658 23.1211 163.862 20.1428 169.715 20.1428C175.408 20.1428 179.257 23.4304 179.303 28.356H173.358C173.312 26.2025 171.869 24.8164 169.463 24.8164C167 24.8164 165.568 25.939 165.568 27.8406C165.568 29.2724 166.702 30.2003 168.856 30.7158L173.427 31.7925C177.688 32.7662 179.841 34.7135 179.841 38.6197C179.841 43.7515 175.477 46.9245 169.223 46.9245C162.911 46.9245 158.913 43.5339 158.913 38.5624H164.835V38.5509Z" fill="#FF6337"/>
<path d="M186.955 46.2494V26.1459H182.086V20.911H186.955V13.0071H193.209V20.911H198.135V26.1459H193.209V46.2608H186.955V46.2494Z" fill="#FF6337"/>
<path d="M10.6177 19.033C5.23557 19.033 0.864746 14.7869 0.864746 9.55825C0.864746 4.32965 5.23557 0.0834961 10.6177 0.0834961C15.9998 0.0834961 20.3706 4.32965 20.3706 9.55825C20.3706 14.7869 15.9998 19.033 10.6177 19.033Z" fill="#7660FE"/>
<path d="M22.7188 18.9995V9.47476C22.7188 4.24616 27.0896 0 32.4888 0H67.1641V18.9995H22.7188Z" fill="url(#paint0_linear_1383_52100)"/>
<path d="M64.0956 55.0002H44.4697V35.9341" fill="#7660FE"/>
<path fill-rule="evenodd" clip-rule="evenodd" d="M22.7349 35.9841C22.7349 46.4413 31.4594 54.9336 42.2408 54.9336L42.2811 18.4306C42.5736 15.3474 44.9856 4.57764e-05 64.0278 4.57764e-05H42.3016L42.3015 0.050955L42.3015 0H32.4879C27.0886 0 22.7178 4.24616 22.7349 9.47476V35.9841Z" fill="url(#paint1_linear_1383_52100)"/>
<defs>
<linearGradient id="paint0_linear_1383_52100" x1="36.0397" y1="9.49724" x2="66.0887" y2="9.49724" gradientUnits="userSpaceOnUse">
<stop offset="0.207" stop-color="#730B16"/>
<stop offset="0.3068" stop-color="#921C1B"/>
<stop offset="0.4356" stop-color="#B42E21"/>
<stop offset="0.5679" stop-color="#CE3C25"/>
<stop offset="0.7034" stop-color="#E04629"/>
<stop offset="0.8441" stop-color="#EB4C2A"/>
<stop offset="0.998" stop-color="#EF4E2B"/>
</linearGradient>
<linearGradient id="paint1_linear_1383_52100" x1="32.4801" y1="-0.664232" x2="32.4801" y2="52.7448" gradientUnits="userSpaceOnUse">
<stop offset="0.00372439" stop-color="#F79945"/>
<stop offset="0.9943" stop-color="#EF4E2B"/>
</linearGradient>
</defs>
</svg>
