<svg width="14" height="14" viewBox="0 0 14 14" fill="none" xmlns="http://www.w3.org/2000/svg">
<g opacity="0.65">
<mask id="mask0_1698_18746" style="mask-type:luminance" maskUnits="userSpaceOnUse" x="0" y="0" width="14" height="14">
<rect width="14" height="14" fill="white"/>
</mask>
<g mask="url(#mask0_1698_18746)">
<path fill-rule="evenodd" clip-rule="evenodd" d="M1.96429 1H12.0357C12.5687 1 13 1.43125 13 1.96429V12.0357C13 12.5687 12.5687 13 12.0357 13H1.96429C1.43125 13 1 12.5687 1 12.0357V1.96429C1 1.43125 1.43125 1 1.96429 1ZM1.96429 12.0357H12.0357V1.96429H1.96429V12.0357Z" fill="white"/>
<path d="M5.76786 10.0536H9.94643C10.213 10.0536 10.4286 9.83802 10.4286 9.5715C10.4286 9.30498 10.213 9.08936 9.94643 9.08936H5.76786C5.50135 9.08936 5.28572 9.30498 5.28572 9.5715C5.28572 9.83802 5.50135 10.0536 5.76786 10.0536Z" fill="white"/>
<path d="M5.76786 4.91057H9.94643C10.213 4.91057 10.4286 4.69495 10.4286 4.42843C10.4286 4.16191 10.213 3.94629 9.94643 3.94629H5.76786C5.50135 3.94629 5.28572 4.16191 5.28572 4.42843C5.28572 4.69495 5.50135 4.91057 5.76786 4.91057Z" fill="white"/>
<path d="M5.76786 7.48235H9.94643C10.213 7.48235 10.4286 7.26673 10.4286 7.00021C10.4286 6.73369 10.213 6.51807 9.94643 6.51807H5.76786C5.50135 6.51807 5.28572 6.73369 5.28572 7.00021C5.28572 7.26673 5.50135 7.48235 5.76786 7.48235Z" fill="white"/>
<circle cx="4.07143" cy="9.58936" r="0.5" fill="white"/>
<circle cx="4.07143" cy="4.44629" r="0.5" fill="white"/>
<circle cx="4.07143" cy="7.01807" r="0.5" fill="white"/>
</g>
</g>
</svg>
